<svg xmlns="http://www.w3.org/2000/svg" viewBox="0 0 400 400"><defs><radialGradient id="g"><stop offset="0" stop-color="#fff"/><stop offset=".35" stop-color="#f7d694"/><stop offset="1" stop-color="#f7d694" stop-opacity="0"/></radialGradient></defs><g fill="url(#g)"><circle cx="70" cy="60" r="20"/><circle cx="320" cy="90" r="13"/><circle cx="250" cy="260" r="18"/><circle cx="100" cy="330" r="11"/></g><g fill="#c99b42"><path d="M196 23l8 25 25 8-25 8-8 25-8-25-25-8 25-8z"/><path d="M323 285l5 16 16 5-16 5-5 16-5-16-16-5 16-5z"/><path d="M53 202l4 13 13 4-13 4-4 13-4-13-13-4 13-4z"/></g></svg>